# xmcd
#
# Track frame offsets:
#	150
#	14209
#	26222
#	37552
#	49798
#	60284
#	72310
#	85553
#	96371
#	108717
#	121254
#
# Disc length: 1728 seconds
#
# Revision: 1
# Processed by: cddbd v1.5.2PL0 Copyright (c) Steve Scherf et al.
# Submitted via: audiograbber 1.83.01
#
DISCID=8b06be0b
DTITLE=ALFREDO GUTIÉRREZ - Alfredo Gutiérrez Y Su Conjunto 2012
DYEAR=2012
DGENRE=Cumbia
TTITLE0=El soltero
TTITLE1=Corazón alegre
TTITLE2=El rinconcito
TTITLE3=Marta Lucia
TTITLE4=El chupaflor
TTITLE5=Piedad
TTITLE6=Mi Rosita
TTITLE7=Reflejo de amor
TTITLE8=La llamada
TTITLE9=La princesita
TTITLE10=Noche de luna llena
EXTD=
EXTT0=
EXTT1=
EXTT2=
EXTT3=
EXTT4=
EXTT5=
EXTT6=
EXTT7=
EXTT8=
EXTT9=
EXTT10=
PLAYORDER=
